<svg width="43" height="43" viewBox="0 0 43 43" fill="none" xmlns="http://www.w3.org/2000/svg">
<path d="M28.6613 4.20108e-05C24.8672 0.000302291 21.2286 1.49464 18.5458 4.15438C15.863 6.81412 14.3557 10.4214 14.3554 14.1829V14.5166H0V43H29.1068V28.3559C32.8663 28.2488 36.432 26.6781 39.032 23.9837C41.6319 21.2894 43.0568 17.6883 42.9983 13.96C42.9397 10.2317 41.4023 6.67635 38.719 4.0636C36.0357 1.45085 32.4224 -0.00902793 28.6613 4.20108e-05ZM4.95014 38.0924V19.4241H14.3554V28.3657H24.1567V38.0924H4.95014ZM29.1068 23.4483C28.9583 23.4581 28.8098 23.4581 28.6613 23.4581H19.3055V14.1829C19.3057 12.3672 19.8433 10.5916 20.8518 9.076C21.8603 7.56045 23.2952 6.37165 24.9788 5.65701C26.6624 4.94236 28.5205 4.7333 30.3227 5.05573C32.125 5.37816 33.7922 6.21791 35.1176 7.47087C36.443 8.72382 37.3684 10.3349 37.7789 12.1043C38.1895 13.8737 38.0672 15.7237 37.4272 17.4249C36.7872 19.126 35.6577 20.6036 34.1786 21.6743C32.6996 22.745 30.9361 23.3619 29.1068 23.4483Z" fill="#345ADC"/>
</svg>
