<svg width="29" height="29" viewBox="0 0 29 29" fill="none" xmlns="http://www.w3.org/2000/svg">
<path d="M21.9194 26.1242C20.8561 26.4383 19.5994 26.5833 18.1252 26.5833H10.8752C9.40105 26.5833 8.14439 26.4383 7.08105 26.1242C7.34689 22.9825 10.5731 20.5054 14.5002 20.5054C18.4273 20.5054 21.6536 22.9825 21.9194 26.1242Z" stroke="#616161" stroke-width="1.5" stroke-linecap="round" stroke-linejoin="round"/>
<path d="M18.1248 2.4165H10.8748C4.83317 2.4165 2.4165 4.83317 2.4165 10.8748V18.1248C2.4165 22.6923 3.794 25.1936 7.08067 26.124C7.3465 22.9823 10.5728 20.5052 14.4998 20.5052C18.4269 20.5052 21.6532 22.9823 21.919 26.124C25.2057 25.1936 26.5832 22.6923 26.5832 18.1248V10.8748C26.5832 4.83317 24.1665 2.4165 18.1248 2.4165ZM14.4998 17.1219C12.1073 17.1219 10.174 15.1765 10.174 12.784C10.174 10.3915 12.1073 8.45817 14.4998 8.45817C16.8923 8.45817 18.8257 10.3915 18.8257 12.784C18.8257 15.1765 16.8923 17.1219 14.4998 17.1219Z" stroke="#616161" stroke-width="1.5" stroke-linecap="round" stroke-linejoin="round"/>
<path d="M18.826 12.7844C18.826 15.1769 16.8927 17.1222 14.5002 17.1222C12.1077 17.1222 10.1743 15.1769 10.1743 12.7844C10.1743 10.3919 12.1077 8.4585 14.5002 8.4585C16.8927 8.4585 18.826 10.3919 18.826 12.7844Z" stroke="#616161" stroke-width="1.5" stroke-linecap="round" stroke-linejoin="round"/>
</svg>
