<svg width="28" height="32" viewBox="0 0 28 32" fill="none" xmlns="http://www.w3.org/2000/svg">
<path d="M24.8268 2.89775C20.9631 -0.965918 14.6713 -0.965918 10.8118 2.89775L0.106679 13.5946C0.0369522 13.6644 3.79185e-05 13.7587 3.79185e-05 13.8571C3.79185e-05 13.9556 0.0369522 14.0499 0.106679 14.1196L1.62016 15.6331C1.68934 15.702 1.78298 15.7407 1.8806 15.7407C1.97823 15.7407 2.07187 15.702 2.14105 15.6331L12.8461 4.93623C14.175 3.60732 15.9428 2.87725 17.8213 2.87725C19.6998 2.87725 21.4676 3.60732 22.7924 4.93623C24.1213 6.26514 24.8514 8.03291 24.8514 9.90732C24.8514 11.7858 24.1213 13.5495 22.7924 14.8784L11.8823 25.7845L10.1145 27.5522C8.46156 29.2052 5.77504 29.2052 4.12211 27.5522C3.3223 26.7524 2.88344 25.6901 2.88344 24.5581C2.88344 23.4261 3.3223 22.3638 4.12211 21.564L14.9461 10.744C15.2209 10.4733 15.5819 10.3216 15.9674 10.3216H15.9715C16.3571 10.3216 16.7139 10.4733 16.9846 10.744C17.2594 11.0188 17.4071 11.3798 17.4071 11.7653C17.4071 12.1468 17.2553 12.5077 16.9846 12.7784L8.13754 21.6173C8.06781 21.687 8.0309 21.7813 8.0309 21.8798C8.0309 21.9782 8.06781 22.0726 8.13754 22.1423L9.65101 23.6558C9.72019 23.7246 9.81384 23.7633 9.91146 23.7633C10.0091 23.7633 10.1027 23.7246 10.1719 23.6558L19.0149 14.8128C19.8311 13.9966 20.2782 12.9138 20.2782 11.7612C20.2782 10.6087 19.827 9.52178 19.0149 8.70967C17.3291 7.02392 14.5893 7.02803 12.9036 8.70967L11.8536 9.76377L2.08363 19.5296C1.42054 20.1888 0.894911 20.9731 0.537241 21.837C0.179572 22.7009 -0.0030256 23.6272 3.79185e-05 24.5622C3.79185e-05 26.4612 0.742421 28.2454 2.08363 29.5866C3.47406 30.9729 5.29516 31.6661 7.11625 31.6661C8.93734 31.6661 10.7584 30.9729 12.1448 29.5866L24.8268 16.9128C26.693 15.0425 27.7266 12.5528 27.7266 9.90732C27.7307 7.25771 26.6971 4.76807 24.8268 2.89775Z" fill="#333333"/>
</svg>
