<svg width="32" height="32" viewBox="0 0 32 32" fill="none" xmlns="http://www.w3.org/2000/svg">
<path d="M10.0485 9.9435C8.17077 11.5395 7.48302 14.4497 9.10352 16.7842C10.6263 18.9739 12.5274 20.8744 14.7175 22.3965C17.052 24.017 19.9623 23.3293 21.5583 21.4515L21.5758 21.4602C23.614 22.405 25.7776 23.0516 28 23.38V28H27.993C14.0385 28.0193 3.48427 17.3443 3.50002 3.507V3.5H8.12002V3.50175C8.44902 5.72425 9.09652 7.88725 10.0398 9.92425L10.0485 9.94175V9.9435ZM28 31.5H29.75C30.2142 31.5 30.6593 31.3156 30.9875 30.9874C31.3156 30.6593 31.5 30.2141 31.5 29.75V21.8715C31.5004 21.4517 31.3498 21.0457 31.0758 20.7277C30.8018 20.4096 30.4225 20.2007 30.0073 20.139L28.5128 19.9185C26.6222 19.6379 24.7817 19.0875 23.0475 18.284L21.7298 17.6733C21.3597 17.5018 20.9415 17.465 20.5472 17.5692C20.1529 17.6733 19.8074 17.9119 19.5703 18.2437L18.9735 19.0785C18.4503 19.8118 17.451 20.034 16.7143 19.5212C14.8671 18.2372 13.2635 16.6342 11.9788 14.7875C11.466 14.049 11.69 13.0498 12.4215 12.5283L13.2563 11.9333C13.5885 11.6961 13.8274 11.3503 13.9315 10.9556C14.0357 10.5609 13.9987 10.1422 13.8268 9.772L13.2143 8.4525C12.4116 6.71815 11.8618 4.87768 11.5815 2.98725L11.3593 1.49275C11.2976 1.0775 11.0886 0.698266 10.7706 0.424236C10.4525 0.150205 10.0466 -0.000361836 9.62677 6.52995e-07H1.75002C1.28589 6.52995e-07 0.840771 0.184375 0.512582 0.512564C0.184393 0.840752 1.89425e-05 1.28587 1.89425e-05 1.75V3.50175C-0.0174811 19.264 12.0925 31.5228 27.9983 31.5H28Z" fill="#0015A5"/>
</svg>
