<svg width="8" height="33" viewBox="0 0 8 33" fill="none" xmlns="http://www.w3.org/2000/svg">
<path d="M7.5 28.75C7.5 29.7446 7.10491 30.6984 6.40165 31.4017C5.69839 32.1049 4.74456 32.5 3.75 32.5C2.75544 32.5 1.80161 32.1049 1.09835 31.4017C0.395088 30.6984 0 29.7446 0 28.75C0 27.7554 0.395088 26.8016 1.09835 26.0983C1.80161 25.3951 2.75544 25 3.75 25C4.74456 25 5.69839 25.3951 6.40165 26.0983C7.10491 26.8016 7.5 27.7554 7.5 28.75ZM7.5 16.25C7.5 17.2446 7.10491 18.1984 6.40165 18.9017C5.69839 19.6049 4.74456 20 3.75 20C2.75544 20 1.80161 19.6049 1.09835 18.9017C0.395088 18.1984 0 17.2446 0 16.25C0 15.2554 0.395088 14.3016 1.09835 13.5983C1.80161 12.8951 2.75544 12.5 3.75 12.5C4.74456 12.5 5.69839 12.8951 6.40165 13.5983C7.10491 14.3016 7.5 15.2554 7.5 16.25ZM7.5 3.75C7.5 4.74456 7.10491 5.69839 6.40165 6.40165C5.69839 7.10491 4.74456 7.5 3.75 7.5C2.75544 7.5 1.80161 7.10491 1.09835 6.40165C0.395088 5.69839 0 4.74456 0 3.75C0 2.75544 0.395088 1.80161 1.09835 1.09835C1.80161 0.395088 2.75544 0 3.75 0C4.74456 0 5.69839 0.395088 6.40165 1.09835C7.10491 1.80161 7.5 2.75544 7.5 3.75Z" fill="#0015A5"/>
</svg>
