<svg width="33" height="33" viewBox="0 0 33 33" fill="none" xmlns="http://www.w3.org/2000/svg">
<path d="M10.75 10.75C10.3936 10.75 10.0518 10.8916 9.79983 11.1436C9.54782 11.3956 9.40625 11.7374 9.40625 12.0938C9.40625 12.4501 9.26468 12.7919 9.01267 13.0439C8.76067 13.2959 8.41888 13.4375 8.0625 13.4375C7.70612 13.4375 7.36433 13.2959 7.11233 13.0439C6.86032 12.7919 6.71875 12.4501 6.71875 12.0938C6.71875 11.0246 7.14347 9.99923 7.89948 9.24323C8.65548 8.48722 9.68085 8.0625 10.75 8.0625C11.8192 8.0625 12.8445 8.48722 13.6005 9.24323C14.3565 9.99923 14.7812 11.0246 14.7812 12.0938C14.7812 12.4501 14.6397 12.7919 14.3877 13.0439C14.1357 13.2959 13.7939 13.4375 13.4375 13.4375C13.0811 13.4375 12.7393 13.2959 12.4873 13.0439C12.2353 12.7919 12.0938 12.4501 12.0938 12.0938C12.0938 11.7374 11.9522 11.3956 11.7002 11.1436C11.4482 10.8916 11.1064 10.75 10.75 10.75ZM21.5 10.75C21.1436 10.75 20.8018 10.8916 20.5498 11.1436C20.2978 11.3956 20.1562 11.7374 20.1562 12.0938C20.1562 12.4501 20.0147 12.7919 19.7627 13.0439C19.5107 13.2959 19.1689 13.4375 18.8125 13.4375C18.4561 13.4375 18.1143 13.2959 17.8623 13.0439C17.6103 12.7919 17.4688 12.4501 17.4688 12.0938C17.4688 11.0246 17.8935 9.99923 18.6495 9.24323C19.4055 8.48722 20.4308 8.0625 21.5 8.0625C22.5692 8.0625 23.5945 8.48722 24.3505 9.24323C25.1065 9.99923 25.5312 11.0246 25.5312 12.0938C25.5312 12.4501 25.3897 12.7919 25.1377 13.0439C24.8857 13.2959 24.5439 13.4375 24.1875 13.4375C23.8311 13.4375 23.4893 13.2959 23.2373 13.0439C22.9853 12.7919 22.8438 12.4501 22.8438 12.0938C22.8438 11.7374 22.7022 11.3956 22.4502 11.1436C22.1982 10.8916 21.8564 10.75 21.5 10.75ZM6.81281 16.125C6.62047 16.125 6.43038 16.1663 6.25538 16.2462C6.08038 16.326 5.92456 16.4424 5.79844 16.5877C5.67232 16.7329 5.57885 16.9035 5.52435 17.088C5.46984 17.2724 5.45557 17.4664 5.4825 17.6569C5.84763 20.2193 7.12505 22.564 9.08013 24.2603C11.0352 25.9565 13.5367 26.8904 16.125 26.8904C18.7133 26.8904 21.2148 25.9565 23.1699 24.2603C25.1249 22.564 26.4024 20.2193 26.7675 17.6569C26.7945 17.4662 26.7801 17.272 26.7255 17.0873C26.6708 16.9027 26.5771 16.7319 26.4507 16.5867C26.3243 16.4414 26.1681 16.325 25.9928 16.2453C25.8175 16.1657 25.6271 16.1246 25.4345 16.125H6.81281ZM16.125 24.1875C14.4572 24.1876 12.8303 23.6708 11.4683 22.7082C10.1063 21.7457 9.07605 20.3847 8.51937 18.8125H23.7306C23.1739 20.3847 22.1437 21.7457 20.7817 22.7082C19.4197 23.6708 17.7928 24.1876 16.125 24.1875ZM32.25 16.125C32.25 14.0074 31.8329 11.9106 31.0226 9.95423C30.2122 7.99785 29.0244 6.22025 27.5271 4.7229C26.0298 3.22556 24.2521 2.0378 22.2958 1.22744C20.3394 0.417086 18.2426 0 16.125 0C14.0074 0 11.9106 0.417086 9.95423 1.22744C7.99785 2.0378 6.22025 3.22556 4.7229 4.7229C3.22556 6.22025 2.0378 7.99785 1.22744 9.95423C0.417085 11.9106 -3.15542e-08 14.0074 0 16.125C6.37265e-08 20.4016 1.69888 24.5031 4.7229 27.5271C7.74693 30.5511 11.8484 32.25 16.125 32.25C20.4016 32.25 24.5031 30.5511 27.5271 27.5271C30.5511 24.5031 32.25 20.4016 32.25 16.125ZM2.6875 16.125C2.6875 12.5612 4.10323 9.14327 6.62325 6.62325C9.14327 4.10323 12.5612 2.6875 16.125 2.6875C19.6888 2.6875 23.1067 4.10323 25.6267 6.62325C28.1468 9.14327 29.5625 12.5612 29.5625 16.125C29.5625 19.6888 28.1468 23.1067 25.6267 25.6267C23.1067 28.1468 19.6888 29.5625 16.125 29.5625C12.5612 29.5625 9.14327 28.1468 6.62325 25.6267C4.10323 23.1067 2.6875 19.6888 2.6875 16.125Z" fill="#333333"/>
</svg>
