<svg width="32" height="30" viewBox="0 0 32 30" fill="none" xmlns="http://www.w3.org/2000/svg">
<path d="M18.8813 0.00158322C19.502 0.00153344 20.112 0.163677 20.6507 0.471948C21.1895 0.78022 21.6384 1.22392 21.9529 1.75908L23.2418 3.95517H26.5208C27.8853 3.95517 29.1939 4.4971 30.1589 5.46179C31.1239 6.42648 31.6663 7.73493 31.6667 9.09942V24.1411C31.6667 24.8168 31.5336 25.486 31.275 26.1103C31.0164 26.7346 30.6373 27.3019 30.1595 27.7797C29.6817 28.2576 29.1144 28.6366 28.4901 28.8952C27.8657 29.1538 27.1966 29.2869 26.5208 29.2869H5.14583C3.78107 29.2869 2.47221 28.7448 1.50718 27.7797C0.542149 26.8147 0 25.5058 0 24.1411V9.09942C0 7.73466 0.542149 6.42579 1.50718 5.46076C2.47221 4.49573 3.78107 3.95358 5.14583 3.95358H8.43917L9.82458 1.69892C10.1431 1.17993 10.5894 0.751263 11.1208 0.453838C11.6521 0.156413 12.2509 0.000161076 12.8598 0H18.8813V0.00158322ZM18.8813 2.37658H12.8598C12.6866 2.37672 12.5154 2.41478 12.3584 2.48809C12.2014 2.56139 12.0624 2.66816 11.951 2.80092L11.8481 2.94342L10.1175 5.76175C10.0114 5.93484 9.86266 6.07784 9.68553 6.17707C9.5084 6.27631 9.30878 6.32847 9.10575 6.32858H5.14742C4.78341 6.32838 4.42293 6.39989 4.08658 6.53905C3.75022 6.6782 3.44458 6.88227 3.18712 7.13958C2.92965 7.3969 2.72542 7.70242 2.58607 8.0387C2.44672 8.37498 2.375 8.73541 2.375 9.09942V24.1411C2.375 25.6706 3.61633 26.9119 5.14583 26.9119H26.5208C27.2557 26.9119 27.9605 26.62 28.4801 26.1004C28.9997 25.5807 29.2917 24.876 29.2917 24.1411V9.09942C29.2917 8.36455 28.9997 7.65977 28.4801 7.14014C27.9605 6.62051 27.2557 6.32858 26.5208 6.32858H22.5625C22.3555 6.32869 22.1521 6.27469 21.9724 6.17193C21.7927 6.06916 21.643 5.92122 21.5381 5.74275L19.9041 2.96083C19.7993 2.7826 19.6499 2.6348 19.4705 2.53205C19.2911 2.4293 19.088 2.37517 18.8813 2.375V2.37658ZM15.8333 8.70358C17.723 8.70358 19.5353 9.45425 20.8715 10.7904C22.2077 12.1266 22.9583 13.9389 22.9583 15.8286C22.9583 17.7183 22.2077 19.5305 20.8715 20.8667C19.5353 22.2029 17.723 22.9536 15.8333 22.9536C13.9437 22.9536 12.1314 22.2029 10.7952 20.8667C9.459 19.5305 8.70833 17.7183 8.70833 15.8286C8.70833 13.9389 9.459 12.1266 10.7952 10.7904C12.1314 9.45425 13.9437 8.70358 15.8333 8.70358ZM15.8333 11.0786C15.2096 11.0786 14.5919 11.2014 14.0156 11.4402C13.4393 11.6789 12.9157 12.0287 12.4746 12.4698C12.0335 12.9109 11.6836 13.4345 11.4449 14.0108C11.2062 14.5871 11.0833 15.2048 11.0833 15.8286C11.0833 16.4524 11.2062 17.07 11.4449 17.6463C11.6836 18.2226 12.0335 18.7463 12.4746 19.1873C12.9157 19.6284 13.4393 19.9783 14.0156 20.217C14.5919 20.4557 15.2096 20.5786 15.8333 20.5786C17.0931 20.5786 18.3013 20.0781 19.1921 19.1873C20.0829 18.2965 20.5833 17.0884 20.5833 15.8286C20.5833 14.5688 20.0829 13.3606 19.1921 12.4698C18.3013 11.579 17.0931 11.0786 15.8333 11.0786Z" fill="#333333"/>
</svg>
