<svg width="36" height="27" viewBox="0 0 36 27" fill="none" xmlns="http://www.w3.org/2000/svg">
<path d="M6 0C4.4087 0 2.88258 0.632141 1.75736 1.75736C0.632141 2.88258 0 4.4087 0 6V21C0 22.5913 0.632141 24.1174 1.75736 25.2426C2.88258 26.3679 4.4087 27 6 27H21C22.5913 27 24.1174 26.3679 25.2426 25.2426C26.3679 24.1174 27 22.5913 27 21V19.5L32.4 23.55C32.7343 23.8007 33.1318 23.9534 33.5479 23.9909C33.9641 24.0284 34.3825 23.9493 34.7562 23.7625C35.13 23.5756 35.4443 23.2883 35.664 22.9329C35.8836 22.5774 36 22.1679 36 21.75V5.25C36 4.83215 35.8836 4.42255 35.664 4.0671C35.4443 3.71166 35.13 3.42441 34.7562 3.23754C34.3825 3.05067 33.9641 2.97157 33.5479 3.00909C33.1318 3.04662 32.7343 3.19929 32.4 3.45L27 7.5V6C27 4.4087 26.3679 2.88258 25.2426 1.75736C24.1174 0.632141 22.5913 0 21 0H6ZM27 11.25L33 6.75V20.25L27 15.75V11.25ZM24 6V21C24 21.7956 23.6839 22.5587 23.1213 23.1213C22.5587 23.6839 21.7956 24 21 24H6C5.20435 24 4.44129 23.6839 3.87868 23.1213C3.31607 22.5587 3 21.7956 3 21V6C3 5.20435 3.31607 4.44129 3.87868 3.87868C4.44129 3.31607 5.20435 3 6 3H21C21.7956 3 22.5587 3.31607 23.1213 3.87868C23.6839 4.44129 24 5.20435 24 6Z" fill="#0015A5"/>
</svg>
