<svg width="69" height="69" viewBox="0 0 69 69" fill="none" xmlns="http://www.w3.org/2000/svg">
<path d="M30.9055 7.04379C32.8893 5.34754 36.1381 5.34754 38.1506 7.04379L42.6931 10.9538C43.5555 11.7013 45.1656 12.305 46.3156 12.305H51.203C54.2505 12.305 56.7518 14.8063 56.7518 17.8538V22.7413C56.7518 23.8625 57.3556 25.5013 58.1031 26.3638L62.0131 30.9063C63.7093 32.89 63.7093 36.1388 62.0131 38.1513L58.1031 42.6938C57.3556 43.5563 56.7518 45.1663 56.7518 46.3163V51.2038C56.7518 54.2513 54.2505 56.7525 51.203 56.7525H46.3156C45.1943 56.7525 43.5555 57.3563 42.6931 58.1038L38.1506 62.0138C36.1668 63.71 32.918 63.71 30.9055 62.0138L26.363 58.1038C25.5005 57.3563 23.8905 56.7525 22.7405 56.7525H17.7668C14.7193 56.7525 12.218 54.2513 12.218 51.2038V46.2875C12.218 45.1663 11.6143 43.5563 10.8955 42.6938L7.0143 38.1225C5.3468 36.1388 5.3468 32.9188 7.0143 30.935L10.8955 26.3638C11.6143 25.5013 12.218 23.8913 12.218 22.77V17.825C12.218 14.7775 14.7193 12.2763 17.7668 12.2763H22.7405C23.8618 12.2763 25.5005 11.6725 26.363 10.925L30.9055 7.04379Z" fill="#042FBE"/>
<path d="M24.0918 34.5L31.0205 41.4575L44.9068 27.5425" stroke="white" stroke-width="1.5" stroke-linecap="round" stroke-linejoin="round"/>
</svg>
